<mxfile host="app.diagrams.net" agent="Mozilla/5.0 (Windows NT 10.0; Win64; x64) AppleWebKit/537.36 (KHTML, like Gecko) Chrome/131.0.0.0 Safari/537.36" version="26.0.2">
  <diagram id="C5RBs43oDa-KdzZeNtuy" name="Page-1">
    <mxGraphModel dx="1032" dy="581" grid="1" gridSize="10" guides="1" tooltips="1" connect="1" arrows="1" fold="1" page="1" pageScale="1" pageWidth="827" pageHeight="1169" math="0" shadow="0">
      <root>
        <mxCell id="WIyWlLk6GJQsqaUBKTNV-0" />
        <mxCell id="WIyWlLk6GJQsqaUBKTNV-1" parent="WIyWlLk6GJQsqaUBKTNV-0" />
        <mxCell id="UpRyoZh2Ys5VnTggwkEB-32" value="" style="html=1;whiteSpace=wrap;fillColor=#dae8fc;strokeColor=#6c8ebf;" vertex="1" parent="WIyWlLk6GJQsqaUBKTNV-1">
          <mxGeometry x="42" y="90" width="280" height="714" as="geometry" />
        </mxCell>
        <mxCell id="UpRyoZh2Ys5VnTggwkEB-48" value="&lt;i style=&quot;font-weight: 400; text-wrap-mode: wrap;&quot;&gt;&amp;lt;&amp;lt;subsystem&amp;gt;&amp;gt;&lt;/i&gt;&lt;br style=&quot;font-weight: 400; text-wrap-mode: wrap;&quot;&gt;&lt;b style=&quot;text-wrap-mode: wrap;&quot;&gt;Webstore&lt;/b&gt;" style="text;align=center;fontStyle=1;verticalAlign=middle;spacingLeft=3;spacingRight=3;strokeColor=none;rotatable=0;points=[[0,0.5],[1,0.5]];portConstraint=eastwest;html=1;" vertex="1" parent="WIyWlLk6GJQsqaUBKTNV-1">
          <mxGeometry x="112" y="114" width="80" height="26" as="geometry" />
        </mxCell>
        <mxCell id="UpRyoZh2Ys5VnTggwkEB-49" value="" style="shape=module;align=left;spacingLeft=20;align=center;verticalAlign=top;whiteSpace=wrap;html=1;" vertex="1" parent="WIyWlLk6GJQsqaUBKTNV-1">
          <mxGeometry x="212" y="102" width="100" height="50" as="geometry" />
        </mxCell>
        <mxCell id="UpRyoZh2Ys5VnTggwkEB-50" value="" style="html=1;whiteSpace=wrap;fillColor=#dae8fc;strokeColor=#6c8ebf;" vertex="1" parent="WIyWlLk6GJQsqaUBKTNV-1">
          <mxGeometry x="482" y="94" width="280" height="250" as="geometry" />
        </mxCell>
        <mxCell id="UpRyoZh2Ys5VnTggwkEB-51" value="&lt;i style=&quot;font-weight: 400; text-wrap-mode: wrap;&quot;&gt;&amp;lt;&amp;lt;subsystem&amp;gt;&amp;gt;&lt;/i&gt;&lt;br style=&quot;font-weight: 400; text-wrap-mode: wrap;&quot;&gt;&lt;b style=&quot;text-wrap-mode: wrap;&quot;&gt;W&lt;/b&gt;&lt;span style=&quot;text-wrap-mode: wrap;&quot;&gt;archouses&lt;/span&gt;" style="text;align=center;fontStyle=1;verticalAlign=middle;spacingLeft=3;spacingRight=3;strokeColor=none;rotatable=0;points=[[0,0.5],[1,0.5]];portConstraint=eastwest;html=1;" vertex="1" parent="WIyWlLk6GJQsqaUBKTNV-1">
          <mxGeometry x="562" y="114" width="80" height="26" as="geometry" />
        </mxCell>
        <mxCell id="UpRyoZh2Ys5VnTggwkEB-52" value="" style="shape=module;align=left;spacingLeft=20;align=center;verticalAlign=top;whiteSpace=wrap;html=1;" vertex="1" parent="WIyWlLk6GJQsqaUBKTNV-1">
          <mxGeometry x="652" y="102" width="100" height="50" as="geometry" />
        </mxCell>
        <mxCell id="UpRyoZh2Ys5VnTggwkEB-54" value="" style="html=1;whiteSpace=wrap;fillColor=#ffe6cc;strokeColor=#d79b00;" vertex="1" parent="WIyWlLk6GJQsqaUBKTNV-1">
          <mxGeometry x="537" y="196" width="170" height="110" as="geometry" />
        </mxCell>
        <mxCell id="UpRyoZh2Ys5VnTggwkEB-55" value="&lt;span style=&quot;text-wrap-mode: wrap;&quot;&gt;:Inventory&lt;/span&gt;" style="text;align=center;fontStyle=1;verticalAlign=middle;spacingLeft=3;spacingRight=3;strokeColor=none;rotatable=0;points=[[0,0.5],[1,0.5]];portConstraint=eastwest;html=1;" vertex="1" parent="WIyWlLk6GJQsqaUBKTNV-1">
          <mxGeometry x="562" y="238" width="80" height="26" as="geometry" />
        </mxCell>
        <mxCell id="UpRyoZh2Ys5VnTggwkEB-56" value="" style="shape=module;align=left;spacingLeft=20;align=center;verticalAlign=top;whiteSpace=wrap;html=1;" vertex="1" parent="WIyWlLk6GJQsqaUBKTNV-1">
          <mxGeometry x="642" y="201" width="40" height="53" as="geometry" />
        </mxCell>
        <mxCell id="UpRyoZh2Ys5VnTggwkEB-57" value="" style="html=1;whiteSpace=wrap;fillColor=#dae8fc;strokeColor=#6c8ebf;" vertex="1" parent="WIyWlLk6GJQsqaUBKTNV-1">
          <mxGeometry x="482" y="376" width="280" height="568" as="geometry" />
        </mxCell>
        <mxCell id="UpRyoZh2Ys5VnTggwkEB-58" value="&lt;i style=&quot;font-weight: 400; text-wrap-mode: wrap;&quot;&gt;&amp;lt;&amp;lt;subsystem&amp;gt;&amp;gt;&lt;/i&gt;&lt;br style=&quot;font-weight: 400; text-wrap-mode: wrap;&quot;&gt;&lt;span style=&quot;text-wrap-mode: wrap;&quot;&gt;Accounting&lt;/span&gt;" style="text;align=center;fontStyle=1;verticalAlign=middle;spacingLeft=3;spacingRight=3;strokeColor=none;rotatable=0;points=[[0,0.5],[1,0.5]];portConstraint=eastwest;html=1;" vertex="1" parent="WIyWlLk6GJQsqaUBKTNV-1">
          <mxGeometry x="562" y="398" width="80" height="26" as="geometry" />
        </mxCell>
        <mxCell id="UpRyoZh2Ys5VnTggwkEB-59" value="" style="shape=module;align=left;spacingLeft=20;align=center;verticalAlign=top;whiteSpace=wrap;html=1;" vertex="1" parent="WIyWlLk6GJQsqaUBKTNV-1">
          <mxGeometry x="652" y="386" width="100" height="50" as="geometry" />
        </mxCell>
        <mxCell id="UpRyoZh2Ys5VnTggwkEB-60" value="" style="html=1;whiteSpace=wrap;fillColor=#ffe6cc;strokeColor=#d79b00;" vertex="1" parent="WIyWlLk6GJQsqaUBKTNV-1">
          <mxGeometry x="537" y="484" width="170" height="110" as="geometry" />
        </mxCell>
        <mxCell id="UpRyoZh2Ys5VnTggwkEB-61" value="&lt;span style=&quot;text-wrap-mode: wrap;&quot;&gt;=Orders&lt;/span&gt;" style="text;align=center;fontStyle=1;verticalAlign=middle;spacingLeft=3;spacingRight=3;strokeColor=none;rotatable=0;points=[[0,0.5],[1,0.5]];portConstraint=eastwest;html=1;" vertex="1" parent="WIyWlLk6GJQsqaUBKTNV-1">
          <mxGeometry x="572" y="549.5" width="80" height="26" as="geometry" />
        </mxCell>
        <mxCell id="UpRyoZh2Ys5VnTggwkEB-62" value="" style="shape=module;align=left;spacingLeft=20;align=center;verticalAlign=top;whiteSpace=wrap;html=1;" vertex="1" parent="WIyWlLk6GJQsqaUBKTNV-1">
          <mxGeometry x="652" y="489.5" width="40" height="52" as="geometry" />
        </mxCell>
        <mxCell id="UpRyoZh2Ys5VnTggwkEB-64" value="" style="html=1;whiteSpace=wrap;fillColor=#ffe6cc;strokeColor=#d79b00;" vertex="1" parent="WIyWlLk6GJQsqaUBKTNV-1">
          <mxGeometry x="537" y="646" width="170" height="110" as="geometry" />
        </mxCell>
        <mxCell id="UpRyoZh2Ys5VnTggwkEB-65" value="" style="shape=module;align=left;spacingLeft=20;align=center;verticalAlign=top;whiteSpace=wrap;html=1;" vertex="1" parent="WIyWlLk6GJQsqaUBKTNV-1">
          <mxGeometry x="652" y="655.5" width="40" height="52" as="geometry" />
        </mxCell>
        <mxCell id="UpRyoZh2Ys5VnTggwkEB-66" value="&lt;span style=&quot;text-wrap-mode: wrap;&quot;&gt;:Customers&lt;/span&gt;" style="text;align=center;fontStyle=1;verticalAlign=middle;spacingLeft=3;spacingRight=3;strokeColor=none;rotatable=0;points=[[0,0.5],[1,0.5]];portConstraint=eastwest;html=1;" vertex="1" parent="WIyWlLk6GJQsqaUBKTNV-1">
          <mxGeometry x="572" y="711" width="80" height="26" as="geometry" />
        </mxCell>
        <mxCell id="UpRyoZh2Ys5VnTggwkEB-67" value="" style="html=1;whiteSpace=wrap;fillColor=#ffe6cc;strokeColor=#d79b00;" vertex="1" parent="WIyWlLk6GJQsqaUBKTNV-1">
          <mxGeometry x="537" y="808" width="170" height="110" as="geometry" />
        </mxCell>
        <mxCell id="UpRyoZh2Ys5VnTggwkEB-68" value="" style="shape=module;align=left;spacingLeft=20;align=center;verticalAlign=top;whiteSpace=wrap;html=1;" vertex="1" parent="WIyWlLk6GJQsqaUBKTNV-1">
          <mxGeometry x="652" y="824" width="40" height="52" as="geometry" />
        </mxCell>
        <mxCell id="UpRyoZh2Ys5VnTggwkEB-69" value="&lt;span style=&quot;text-wrap-mode: wrap;&quot;&gt;:Accounts&lt;/span&gt;" style="text;align=center;fontStyle=1;verticalAlign=middle;spacingLeft=3;spacingRight=3;strokeColor=none;rotatable=0;points=[[0,0.5],[1,0.5]];portConstraint=eastwest;html=1;" vertex="1" parent="WIyWlLk6GJQsqaUBKTNV-1">
          <mxGeometry x="582" y="876" width="80" height="26" as="geometry" />
        </mxCell>
        <mxCell id="UpRyoZh2Ys5VnTggwkEB-70" value="" style="html=1;whiteSpace=wrap;fillColor=#ffe6cc;strokeColor=#d79b00;" vertex="1" parent="WIyWlLk6GJQsqaUBKTNV-1">
          <mxGeometry x="97" y="194" width="170" height="110" as="geometry" />
        </mxCell>
        <mxCell id="UpRyoZh2Ys5VnTggwkEB-71" value="" style="shape=module;align=left;spacingLeft=20;align=center;verticalAlign=top;whiteSpace=wrap;html=1;" vertex="1" parent="WIyWlLk6GJQsqaUBKTNV-1">
          <mxGeometry x="212" y="206" width="40" height="52" as="geometry" />
        </mxCell>
        <mxCell id="UpRyoZh2Ys5VnTggwkEB-72" value="&lt;span style=&quot;text-wrap-mode: wrap;&quot;&gt;:SearchEngine&lt;/span&gt;" style="text;align=center;fontStyle=1;verticalAlign=middle;spacingLeft=3;spacingRight=3;strokeColor=none;rotatable=0;points=[[0,0.5],[1,0.5]];portConstraint=eastwest;html=1;" vertex="1" parent="WIyWlLk6GJQsqaUBKTNV-1">
          <mxGeometry x="132" y="261" width="80" height="26" as="geometry" />
        </mxCell>
        <mxCell id="UpRyoZh2Ys5VnTggwkEB-73" value="" style="html=1;whiteSpace=wrap;fillColor=#ffe6cc;strokeColor=#d79b00;" vertex="1" parent="WIyWlLk6GJQsqaUBKTNV-1">
          <mxGeometry x="92" y="489.5" width="170" height="110" as="geometry" />
        </mxCell>
        <mxCell id="UpRyoZh2Ys5VnTggwkEB-74" value="" style="html=1;whiteSpace=wrap;fillColor=#ffe6cc;strokeColor=#d79b00;" vertex="1" parent="WIyWlLk6GJQsqaUBKTNV-1">
          <mxGeometry x="92" y="648.5" width="170" height="110" as="geometry" />
        </mxCell>
        <mxCell id="UpRyoZh2Ys5VnTggwkEB-75" value="" style="shape=module;align=left;spacingLeft=20;align=center;verticalAlign=top;whiteSpace=wrap;html=1;" vertex="1" parent="WIyWlLk6GJQsqaUBKTNV-1">
          <mxGeometry x="202" y="496.5" width="40" height="52" as="geometry" />
        </mxCell>
        <mxCell id="UpRyoZh2Ys5VnTggwkEB-76" value="" style="shape=module;align=left;spacingLeft=20;align=center;verticalAlign=top;whiteSpace=wrap;html=1;" vertex="1" parent="WIyWlLk6GJQsqaUBKTNV-1">
          <mxGeometry x="202" y="652" width="40" height="52" as="geometry" />
        </mxCell>
        <mxCell id="UpRyoZh2Ys5VnTggwkEB-77" value="&lt;span style=&quot;text-wrap-mode: wrap;&quot;&gt;:ShoppingCart&lt;/span&gt;" style="text;align=center;fontStyle=1;verticalAlign=middle;spacingLeft=3;spacingRight=3;strokeColor=none;rotatable=0;points=[[0,0.5],[1,0.5]];portConstraint=eastwest;html=1;" vertex="1" parent="WIyWlLk6GJQsqaUBKTNV-1">
          <mxGeometry x="132" y="554.5" width="80" height="26" as="geometry" />
        </mxCell>
        <mxCell id="UpRyoZh2Ys5VnTggwkEB-78" value="&lt;span style=&quot;text-wrap-mode: wrap;&quot;&gt;:Authentication&lt;/span&gt;" style="text;align=center;fontStyle=1;verticalAlign=middle;spacingLeft=3;spacingRight=3;strokeColor=none;rotatable=0;points=[[0,0.5],[1,0.5]];portConstraint=eastwest;html=1;" vertex="1" parent="WIyWlLk6GJQsqaUBKTNV-1">
          <mxGeometry x="122" y="730" width="80" height="26" as="geometry" />
        </mxCell>
        <mxCell id="UpRyoZh2Ys5VnTggwkEB-79" value="" style="line;strokeWidth=1;fillColor=none;align=left;verticalAlign=middle;spacingTop=-1;spacingLeft=3;spacingRight=3;rotatable=0;labelPosition=right;points=[];portConstraint=eastwest;strokeColor=inherit;" vertex="1" parent="WIyWlLk6GJQsqaUBKTNV-1">
          <mxGeometry x="42" y="164" width="280" height="8" as="geometry" />
        </mxCell>
        <mxCell id="UpRyoZh2Ys5VnTggwkEB-86" value="" style="line;strokeWidth=1;fillColor=none;align=left;verticalAlign=middle;spacingTop=-1;spacingLeft=3;spacingRight=3;rotatable=0;labelPosition=right;points=[];portConstraint=eastwest;strokeColor=inherit;" vertex="1" parent="WIyWlLk6GJQsqaUBKTNV-1">
          <mxGeometry x="82" y="245" width="15" height="8" as="geometry" />
        </mxCell>
        <mxCell id="UpRyoZh2Ys5VnTggwkEB-87" value="" style="ellipse;whiteSpace=wrap;html=1;aspect=fixed;" vertex="1" parent="WIyWlLk6GJQsqaUBKTNV-1">
          <mxGeometry x="65" y="240.5" width="17" height="17" as="geometry" />
        </mxCell>
        <mxCell id="UpRyoZh2Ys5VnTggwkEB-88" value="" style="whiteSpace=wrap;html=1;aspect=fixed;" vertex="1" parent="WIyWlLk6GJQsqaUBKTNV-1">
          <mxGeometry x="32" y="241" width="17" height="17" as="geometry" />
        </mxCell>
        <mxCell id="UpRyoZh2Ys5VnTggwkEB-89" value="" style="line;strokeWidth=1;fillColor=none;align=left;verticalAlign=middle;spacingTop=-1;spacingLeft=3;spacingRight=3;rotatable=0;labelPosition=right;points=[];portConstraint=eastwest;strokeColor=inherit;" vertex="1" parent="WIyWlLk6GJQsqaUBKTNV-1">
          <mxGeometry x="49" y="245" width="15" height="8" as="geometry" />
        </mxCell>
        <mxCell id="UpRyoZh2Ys5VnTggwkEB-90" value="" style="line;strokeWidth=1;fillColor=none;align=left;verticalAlign=middle;spacingTop=-1;spacingLeft=3;spacingRight=3;rotatable=0;labelPosition=right;points=[];portConstraint=eastwest;strokeColor=inherit;" vertex="1" parent="WIyWlLk6GJQsqaUBKTNV-1">
          <mxGeometry x="17" y="245.5" width="15" height="8" as="geometry" />
        </mxCell>
        <mxCell id="UpRyoZh2Ys5VnTggwkEB-91" value="" style="ellipse;whiteSpace=wrap;html=1;aspect=fixed;" vertex="1" parent="WIyWlLk6GJQsqaUBKTNV-1">
          <mxGeometry y="241" width="17" height="17" as="geometry" />
        </mxCell>
        <mxCell id="UpRyoZh2Ys5VnTggwkEB-100" value="" style="ellipse;whiteSpace=wrap;html=1;aspect=fixed;" vertex="1" parent="WIyWlLk6GJQsqaUBKTNV-1">
          <mxGeometry x="60" y="537" width="17" height="17" as="geometry" />
        </mxCell>
        <mxCell id="UpRyoZh2Ys5VnTggwkEB-101" value="" style="line;strokeWidth=1;fillColor=none;align=left;verticalAlign=middle;spacingTop=-1;spacingLeft=3;spacingRight=3;rotatable=0;labelPosition=right;points=[];portConstraint=eastwest;strokeColor=inherit;" vertex="1" parent="WIyWlLk6GJQsqaUBKTNV-1">
          <mxGeometry x="77" y="541.5" width="15" height="8" as="geometry" />
        </mxCell>
        <mxCell id="UpRyoZh2Ys5VnTggwkEB-102" value="" style="line;strokeWidth=1;fillColor=none;align=left;verticalAlign=middle;spacingTop=-1;spacingLeft=3;spacingRight=3;rotatable=0;labelPosition=right;points=[];portConstraint=eastwest;strokeColor=inherit;" vertex="1" parent="WIyWlLk6GJQsqaUBKTNV-1">
          <mxGeometry x="45" y="541.5" width="15" height="8" as="geometry" />
        </mxCell>
        <mxCell id="UpRyoZh2Ys5VnTggwkEB-103" value="" style="whiteSpace=wrap;html=1;aspect=fixed;" vertex="1" parent="WIyWlLk6GJQsqaUBKTNV-1">
          <mxGeometry x="32" y="537" width="17" height="17" as="geometry" />
        </mxCell>
        <mxCell id="UpRyoZh2Ys5VnTggwkEB-104" value="" style="line;strokeWidth=1;fillColor=none;align=left;verticalAlign=middle;spacingTop=-1;spacingLeft=3;spacingRight=3;rotatable=0;labelPosition=right;points=[];portConstraint=eastwest;strokeColor=inherit;" vertex="1" parent="WIyWlLk6GJQsqaUBKTNV-1">
          <mxGeometry x="17" y="541.5" width="15" height="8" as="geometry" />
        </mxCell>
        <mxCell id="UpRyoZh2Ys5VnTggwkEB-105" value="" style="ellipse;whiteSpace=wrap;html=1;aspect=fixed;" vertex="1" parent="WIyWlLk6GJQsqaUBKTNV-1">
          <mxGeometry y="537" width="17" height="17" as="geometry" />
        </mxCell>
        <mxCell id="UpRyoZh2Ys5VnTggwkEB-106" value="" style="line;strokeWidth=1;fillColor=none;align=left;verticalAlign=middle;spacingTop=-1;spacingLeft=3;spacingRight=3;rotatable=0;labelPosition=right;points=[];portConstraint=eastwest;strokeColor=inherit;" vertex="1" parent="WIyWlLk6GJQsqaUBKTNV-1">
          <mxGeometry x="279" y="245.5" width="13" height="8" as="geometry" />
        </mxCell>
        <mxCell id="UpRyoZh2Ys5VnTggwkEB-107" value="" style="whiteSpace=wrap;html=1;aspect=fixed;" vertex="1" parent="WIyWlLk6GJQsqaUBKTNV-1">
          <mxGeometry x="262" y="240.5" width="17" height="17" as="geometry" />
        </mxCell>
        <mxCell id="UpRyoZh2Ys5VnTggwkEB-108" value="" style="shape=requiredInterface;html=1;verticalLabelPosition=bottom;sketch=0;rotation=-180;" vertex="1" parent="WIyWlLk6GJQsqaUBKTNV-1">
          <mxGeometry x="292" y="241" width="10" height="20" as="geometry" />
        </mxCell>
        <mxCell id="UpRyoZh2Ys5VnTggwkEB-109" value="" style="whiteSpace=wrap;html=1;aspect=fixed;" vertex="1" parent="WIyWlLk6GJQsqaUBKTNV-1">
          <mxGeometry x="312" y="242.5" width="17" height="17" as="geometry" />
        </mxCell>
        <mxCell id="UpRyoZh2Ys5VnTggwkEB-110" value="" style="line;strokeWidth=1;fillColor=none;align=left;verticalAlign=middle;spacingTop=-1;spacingLeft=3;spacingRight=3;rotatable=0;labelPosition=right;points=[];portConstraint=eastwest;strokeColor=inherit;" vertex="1" parent="WIyWlLk6GJQsqaUBKTNV-1">
          <mxGeometry x="329" y="247" width="23" height="8" as="geometry" />
        </mxCell>
        <mxCell id="UpRyoZh2Ys5VnTggwkEB-111" value="" style="line;strokeWidth=1;fillColor=none;align=left;verticalAlign=middle;spacingTop=-1;spacingLeft=3;spacingRight=3;rotatable=0;labelPosition=right;points=[];portConstraint=eastwest;strokeColor=inherit;" vertex="1" parent="WIyWlLk6GJQsqaUBKTNV-1">
          <mxGeometry x="302" y="247" width="10" height="8" as="geometry" />
        </mxCell>
        <mxCell id="UpRyoZh2Ys5VnTggwkEB-112" value="" style="shape=requiredInterface;html=1;verticalLabelPosition=bottom;sketch=0;rotation=-180;" vertex="1" parent="WIyWlLk6GJQsqaUBKTNV-1">
          <mxGeometry x="352" y="241" width="10" height="20" as="geometry" />
        </mxCell>
        <mxCell id="UpRyoZh2Ys5VnTggwkEB-113" value="" style="endArrow=open;endSize=12;dashed=1;html=1;rounded=0;exitX=0;exitY=0.5;exitDx=0;exitDy=0;exitPerimeter=0;" edge="1" parent="WIyWlLk6GJQsqaUBKTNV-1" source="UpRyoZh2Ys5VnTggwkEB-112">
          <mxGeometry width="160" relative="1" as="geometry">
            <mxPoint x="372" y="251" as="sourcePoint" />
            <mxPoint x="402" y="251" as="targetPoint" />
          </mxGeometry>
        </mxCell>
        <mxCell id="UpRyoZh2Ys5VnTggwkEB-114" value="" style="ellipse;whiteSpace=wrap;html=1;aspect=fixed;" vertex="1" parent="WIyWlLk6GJQsqaUBKTNV-1">
          <mxGeometry x="402" y="242.5" width="17" height="17" as="geometry" />
        </mxCell>
        <mxCell id="UpRyoZh2Ys5VnTggwkEB-115" value="" style="whiteSpace=wrap;html=1;aspect=fixed;" vertex="1" parent="WIyWlLk6GJQsqaUBKTNV-1">
          <mxGeometry x="472" y="242.5" width="17" height="17" as="geometry" />
        </mxCell>
        <mxCell id="UpRyoZh2Ys5VnTggwkEB-116" value="" style="line;strokeWidth=1;fillColor=none;align=left;verticalAlign=middle;spacingTop=-1;spacingLeft=3;spacingRight=3;rotatable=0;labelPosition=right;points=[];portConstraint=eastwest;strokeColor=inherit;" vertex="1" parent="WIyWlLk6GJQsqaUBKTNV-1">
          <mxGeometry x="419" y="247" width="53" height="8" as="geometry" />
        </mxCell>
        <mxCell id="UpRyoZh2Ys5VnTggwkEB-117" value="" style="line;strokeWidth=1;fillColor=none;align=left;verticalAlign=middle;spacingTop=-1;spacingLeft=3;spacingRight=3;rotatable=0;labelPosition=right;points=[];portConstraint=eastwest;strokeColor=inherit;" vertex="1" parent="WIyWlLk6GJQsqaUBKTNV-1">
          <mxGeometry x="489" y="247" width="20" height="8" as="geometry" />
        </mxCell>
        <mxCell id="UpRyoZh2Ys5VnTggwkEB-118" value="" style="ellipse;whiteSpace=wrap;html=1;aspect=fixed;" vertex="1" parent="WIyWlLk6GJQsqaUBKTNV-1">
          <mxGeometry x="503.5" y="242.5" width="17" height="17" as="geometry" />
        </mxCell>
        <mxCell id="UpRyoZh2Ys5VnTggwkEB-121" value="" style="whiteSpace=wrap;html=1;aspect=fixed;" vertex="1" parent="WIyWlLk6GJQsqaUBKTNV-1">
          <mxGeometry x="702" y="244" width="17" height="17" as="geometry" />
        </mxCell>
        <mxCell id="UpRyoZh2Ys5VnTggwkEB-123" value="" style="line;strokeWidth=1;fillColor=none;align=left;verticalAlign=middle;spacingTop=-1;spacingLeft=3;spacingRight=3;rotatable=0;labelPosition=right;points=[];portConstraint=eastwest;strokeColor=inherit;" vertex="1" parent="WIyWlLk6GJQsqaUBKTNV-1">
          <mxGeometry x="719" y="248.5" width="13" height="8" as="geometry" />
        </mxCell>
        <mxCell id="UpRyoZh2Ys5VnTggwkEB-124" value="" style="shape=requiredInterface;html=1;verticalLabelPosition=bottom;sketch=0;rotation=-180;" vertex="1" parent="WIyWlLk6GJQsqaUBKTNV-1">
          <mxGeometry x="732" y="242.5" width="10" height="20" as="geometry" />
        </mxCell>
        <mxCell id="UpRyoZh2Ys5VnTggwkEB-125" value="" style="whiteSpace=wrap;html=1;aspect=fixed;" vertex="1" parent="WIyWlLk6GJQsqaUBKTNV-1">
          <mxGeometry x="752" y="244" width="17" height="17" as="geometry" />
        </mxCell>
        <mxCell id="UpRyoZh2Ys5VnTggwkEB-126" value="" style="line;strokeWidth=1;fillColor=none;align=left;verticalAlign=middle;spacingTop=-1;spacingLeft=3;spacingRight=3;rotatable=0;labelPosition=right;points=[];portConstraint=eastwest;strokeColor=inherit;" vertex="1" parent="WIyWlLk6GJQsqaUBKTNV-1">
          <mxGeometry x="769" y="248.5" width="23" height="8" as="geometry" />
        </mxCell>
        <mxCell id="UpRyoZh2Ys5VnTggwkEB-127" value="" style="shape=requiredInterface;html=1;verticalLabelPosition=bottom;sketch=0;rotation=-180;" vertex="1" parent="WIyWlLk6GJQsqaUBKTNV-1">
          <mxGeometry x="792" y="242.5" width="10" height="20" as="geometry" />
        </mxCell>
        <mxCell id="UpRyoZh2Ys5VnTggwkEB-128" value="" style="line;strokeWidth=1;fillColor=none;align=left;verticalAlign=middle;spacingTop=-1;spacingLeft=3;spacingRight=3;rotatable=0;labelPosition=right;points=[];portConstraint=eastwest;strokeColor=inherit;" vertex="1" parent="WIyWlLk6GJQsqaUBKTNV-1">
          <mxGeometry x="482" y="164" width="280" height="8" as="geometry" />
        </mxCell>
        <mxCell id="UpRyoZh2Ys5VnTggwkEB-129" value="" style="line;strokeWidth=1;fillColor=none;align=left;verticalAlign=middle;spacingTop=-1;spacingLeft=3;spacingRight=3;rotatable=0;labelPosition=right;points=[];portConstraint=eastwest;strokeColor=inherit;" vertex="1" parent="WIyWlLk6GJQsqaUBKTNV-1">
          <mxGeometry x="482" y="454" width="280" height="8" as="geometry" />
        </mxCell>
        <mxCell id="UpRyoZh2Ys5VnTggwkEB-130" value="" style="whiteSpace=wrap;html=1;aspect=fixed;" vertex="1" parent="WIyWlLk6GJQsqaUBKTNV-1">
          <mxGeometry x="253.5" y="536" width="17" height="17" as="geometry" />
        </mxCell>
        <mxCell id="UpRyoZh2Ys5VnTggwkEB-131" value="" style="line;strokeWidth=1;fillColor=none;align=left;verticalAlign=middle;spacingTop=-1;spacingLeft=3;spacingRight=3;rotatable=0;labelPosition=right;points=[];portConstraint=eastwest;strokeColor=inherit;" vertex="1" parent="WIyWlLk6GJQsqaUBKTNV-1">
          <mxGeometry x="270.5" y="540.5" width="13" height="8" as="geometry" />
        </mxCell>
        <mxCell id="UpRyoZh2Ys5VnTggwkEB-132" value="" style="shape=requiredInterface;html=1;verticalLabelPosition=bottom;sketch=0;rotation=-180;" vertex="1" parent="WIyWlLk6GJQsqaUBKTNV-1">
          <mxGeometry x="283.5" y="534.5" width="10" height="20" as="geometry" />
        </mxCell>
        <mxCell id="UpRyoZh2Ys5VnTggwkEB-133" value="" style="whiteSpace=wrap;html=1;aspect=fixed;" vertex="1" parent="WIyWlLk6GJQsqaUBKTNV-1">
          <mxGeometry x="312" y="536" width="17" height="17" as="geometry" />
        </mxCell>
        <mxCell id="UpRyoZh2Ys5VnTggwkEB-134" value="" style="line;strokeWidth=1;fillColor=none;align=left;verticalAlign=middle;spacingTop=-1;spacingLeft=3;spacingRight=3;rotatable=0;labelPosition=right;points=[];portConstraint=eastwest;strokeColor=inherit;" vertex="1" parent="WIyWlLk6GJQsqaUBKTNV-1">
          <mxGeometry x="302" y="540.5" width="10" height="8" as="geometry" />
        </mxCell>
        <mxCell id="UpRyoZh2Ys5VnTggwkEB-135" value="" style="line;strokeWidth=1;fillColor=none;align=left;verticalAlign=middle;spacingTop=-1;spacingLeft=3;spacingRight=3;rotatable=0;labelPosition=right;points=[];portConstraint=eastwest;strokeColor=inherit;" vertex="1" parent="WIyWlLk6GJQsqaUBKTNV-1">
          <mxGeometry x="329" y="540.5" width="23" height="8" as="geometry" />
        </mxCell>
        <mxCell id="UpRyoZh2Ys5VnTggwkEB-136" value="" style="shape=requiredInterface;html=1;verticalLabelPosition=bottom;sketch=0;rotation=-180;" vertex="1" parent="WIyWlLk6GJQsqaUBKTNV-1">
          <mxGeometry x="352" y="534.5" width="10" height="20" as="geometry" />
        </mxCell>
        <mxCell id="UpRyoZh2Ys5VnTggwkEB-137" value="" style="endArrow=open;endSize=12;dashed=1;html=1;rounded=0;exitX=0;exitY=0.5;exitDx=0;exitDy=0;exitPerimeter=0;" edge="1" parent="WIyWlLk6GJQsqaUBKTNV-1">
          <mxGeometry width="160" relative="1" as="geometry">
            <mxPoint x="362" y="544.0799999999999" as="sourcePoint" />
            <mxPoint x="402" y="544.0799999999999" as="targetPoint" />
          </mxGeometry>
        </mxCell>
        <mxCell id="UpRyoZh2Ys5VnTggwkEB-138" value="" style="ellipse;whiteSpace=wrap;html=1;aspect=fixed;" vertex="1" parent="WIyWlLk6GJQsqaUBKTNV-1">
          <mxGeometry x="402" y="536" width="17" height="17" as="geometry" />
        </mxCell>
        <mxCell id="UpRyoZh2Ys5VnTggwkEB-139" value="" style="whiteSpace=wrap;html=1;aspect=fixed;" vertex="1" parent="WIyWlLk6GJQsqaUBKTNV-1">
          <mxGeometry x="472" y="536" width="17" height="17" as="geometry" />
        </mxCell>
        <mxCell id="UpRyoZh2Ys5VnTggwkEB-140" value="" style="line;strokeWidth=1;fillColor=none;align=left;verticalAlign=middle;spacingTop=-1;spacingLeft=3;spacingRight=3;rotatable=0;labelPosition=right;points=[];portConstraint=eastwest;strokeColor=inherit;" vertex="1" parent="WIyWlLk6GJQsqaUBKTNV-1">
          <mxGeometry x="419" y="540.5" width="53" height="8" as="geometry" />
        </mxCell>
        <mxCell id="UpRyoZh2Ys5VnTggwkEB-141" value="" style="line;strokeWidth=1;fillColor=none;align=left;verticalAlign=middle;spacingTop=-1;spacingLeft=3;spacingRight=3;rotatable=0;labelPosition=right;points=[];portConstraint=eastwest;strokeColor=inherit;" vertex="1" parent="WIyWlLk6GJQsqaUBKTNV-1">
          <mxGeometry x="489" y="540.5" width="20" height="8" as="geometry" />
        </mxCell>
        <mxCell id="UpRyoZh2Ys5VnTggwkEB-142" value="" style="ellipse;whiteSpace=wrap;html=1;aspect=fixed;" vertex="1" parent="WIyWlLk6GJQsqaUBKTNV-1">
          <mxGeometry x="509" y="536" width="17" height="17" as="geometry" />
        </mxCell>
        <mxCell id="UpRyoZh2Ys5VnTggwkEB-147" value="" style="line;strokeWidth=1;fillColor=none;align=left;verticalAlign=middle;spacingTop=-1;spacingLeft=3;spacingRight=3;rotatable=0;labelPosition=right;points=[];portConstraint=eastwest;strokeColor=inherit;" vertex="1" parent="WIyWlLk6GJQsqaUBKTNV-1">
          <mxGeometry x="510" y="247" width="27" height="8" as="geometry" />
        </mxCell>
        <mxCell id="UpRyoZh2Ys5VnTggwkEB-149" value="" style="whiteSpace=wrap;html=1;aspect=fixed;" vertex="1" parent="WIyWlLk6GJQsqaUBKTNV-1">
          <mxGeometry x="702" y="536" width="17" height="17" as="geometry" />
        </mxCell>
        <mxCell id="UpRyoZh2Ys5VnTggwkEB-150" value="" style="line;strokeWidth=1;fillColor=none;align=left;verticalAlign=middle;spacingTop=-1;spacingLeft=3;spacingRight=3;rotatable=0;labelPosition=right;points=[];portConstraint=eastwest;strokeColor=inherit;" vertex="1" parent="WIyWlLk6GJQsqaUBKTNV-1">
          <mxGeometry x="719" y="540.5" width="13" height="8" as="geometry" />
        </mxCell>
        <mxCell id="UpRyoZh2Ys5VnTggwkEB-151" value="" style="shape=requiredInterface;html=1;verticalLabelPosition=bottom;sketch=0;rotation=-180;" vertex="1" parent="WIyWlLk6GJQsqaUBKTNV-1">
          <mxGeometry x="732" y="534.5" width="10" height="20" as="geometry" />
        </mxCell>
        <mxCell id="UpRyoZh2Ys5VnTggwkEB-152" value="" style="whiteSpace=wrap;html=1;aspect=fixed;" vertex="1" parent="WIyWlLk6GJQsqaUBKTNV-1">
          <mxGeometry x="752" y="536" width="17" height="17" as="geometry" />
        </mxCell>
        <mxCell id="UpRyoZh2Ys5VnTggwkEB-153" value="" style="line;strokeWidth=1;fillColor=none;align=left;verticalAlign=middle;spacingTop=-1;spacingLeft=3;spacingRight=3;rotatable=0;labelPosition=right;points=[];portConstraint=eastwest;strokeColor=inherit;" vertex="1" parent="WIyWlLk6GJQsqaUBKTNV-1">
          <mxGeometry x="522" y="540.5" width="15" height="8" as="geometry" />
        </mxCell>
        <mxCell id="UpRyoZh2Ys5VnTggwkEB-154" value="" style="line;strokeWidth=1;fillColor=none;align=left;verticalAlign=middle;spacingTop=-1;spacingLeft=3;spacingRight=3;rotatable=0;labelPosition=right;points=[];portConstraint=eastwest;strokeColor=inherit;" vertex="1" parent="WIyWlLk6GJQsqaUBKTNV-1">
          <mxGeometry x="769" y="540.5" width="23" height="8" as="geometry" />
        </mxCell>
        <mxCell id="UpRyoZh2Ys5VnTggwkEB-155" value="" style="shape=requiredInterface;html=1;verticalLabelPosition=bottom;sketch=0;rotation=-180;" vertex="1" parent="WIyWlLk6GJQsqaUBKTNV-1">
          <mxGeometry x="792" y="534.5" width="10" height="20" as="geometry" />
        </mxCell>
        <mxCell id="UpRyoZh2Ys5VnTggwkEB-156" value="" style="html=1;verticalAlign=bottom;endArrow=open;dashed=1;endSize=8;curved=0;rounded=0;entryX=0;entryY=0.5;entryDx=0;entryDy=0;entryPerimeter=0;exitX=0;exitY=0.5;exitDx=0;exitDy=0;exitPerimeter=0;" edge="1" parent="WIyWlLk6GJQsqaUBKTNV-1" source="UpRyoZh2Ys5VnTggwkEB-155" target="UpRyoZh2Ys5VnTggwkEB-127">
          <mxGeometry relative="1" as="geometry">
            <mxPoint x="810" y="544" as="sourcePoint" />
            <mxPoint x="810" y="254" as="targetPoint" />
            <Array as="points">
              <mxPoint x="820" y="544" />
              <mxPoint x="820" y="400" />
              <mxPoint x="820" y="253" />
            </Array>
          </mxGeometry>
        </mxCell>
        <mxCell id="UpRyoZh2Ys5VnTggwkEB-157" value="" style="line;strokeWidth=1;fillColor=none;align=left;verticalAlign=middle;spacingTop=-1;spacingLeft=3;spacingRight=3;rotatable=0;labelPosition=right;points=[];portConstraint=eastwest;strokeColor=inherit;direction=south;" vertex="1" parent="WIyWlLk6GJQsqaUBKTNV-1">
          <mxGeometry x="173" y="599.5" width="8" height="14.5" as="geometry" />
        </mxCell>
        <mxCell id="UpRyoZh2Ys5VnTggwkEB-158" value="" style="shape=providedRequiredInterface;html=1;verticalLabelPosition=bottom;sketch=0;direction=north;" vertex="1" parent="WIyWlLk6GJQsqaUBKTNV-1">
          <mxGeometry x="167" y="614" width="20" height="20" as="geometry" />
        </mxCell>
        <mxCell id="UpRyoZh2Ys5VnTggwkEB-159" value="" style="line;strokeWidth=1;fillColor=none;align=left;verticalAlign=middle;spacingTop=-1;spacingLeft=3;spacingRight=3;rotatable=0;labelPosition=right;points=[];portConstraint=eastwest;strokeColor=inherit;direction=south;" vertex="1" parent="WIyWlLk6GJQsqaUBKTNV-1">
          <mxGeometry x="173" y="634" width="8" height="14.5" as="geometry" />
        </mxCell>
        <mxCell id="UpRyoZh2Ys5VnTggwkEB-161" value="" style="line;strokeWidth=1;fillColor=none;align=left;verticalAlign=middle;spacingTop=-1;spacingLeft=3;spacingRight=3;rotatable=0;labelPosition=right;points=[];portConstraint=eastwest;strokeColor=inherit;" vertex="1" parent="WIyWlLk6GJQsqaUBKTNV-1">
          <mxGeometry x="77" y="699.5" width="15" height="8" as="geometry" />
        </mxCell>
        <mxCell id="UpRyoZh2Ys5VnTggwkEB-162" value="" style="ellipse;whiteSpace=wrap;html=1;aspect=fixed;" vertex="1" parent="WIyWlLk6GJQsqaUBKTNV-1">
          <mxGeometry x="60" y="694" width="17" height="17" as="geometry" />
        </mxCell>
        <mxCell id="UpRyoZh2Ys5VnTggwkEB-164" value="" style="line;strokeWidth=1;fillColor=none;align=left;verticalAlign=middle;spacingTop=-1;spacingLeft=3;spacingRight=3;rotatable=0;labelPosition=right;points=[];portConstraint=eastwest;strokeColor=inherit;" vertex="1" parent="WIyWlLk6GJQsqaUBKTNV-1">
          <mxGeometry x="45" y="699.5" width="15" height="8" as="geometry" />
        </mxCell>
        <mxCell id="UpRyoZh2Ys5VnTggwkEB-165" value="" style="whiteSpace=wrap;html=1;aspect=fixed;" vertex="1" parent="WIyWlLk6GJQsqaUBKTNV-1">
          <mxGeometry x="33" y="695" width="17" height="17" as="geometry" />
        </mxCell>
        <mxCell id="UpRyoZh2Ys5VnTggwkEB-166" value="" style="line;strokeWidth=1;fillColor=none;align=left;verticalAlign=middle;spacingTop=-1;spacingLeft=3;spacingRight=3;rotatable=0;labelPosition=right;points=[];portConstraint=eastwest;strokeColor=inherit;" vertex="1" parent="WIyWlLk6GJQsqaUBKTNV-1">
          <mxGeometry x="18" y="699.5" width="15" height="8" as="geometry" />
        </mxCell>
        <mxCell id="UpRyoZh2Ys5VnTggwkEB-168" value="" style="ellipse;whiteSpace=wrap;html=1;aspect=fixed;" vertex="1" parent="WIyWlLk6GJQsqaUBKTNV-1">
          <mxGeometry x="1" y="695" width="17" height="17" as="geometry" />
        </mxCell>
        <mxCell id="UpRyoZh2Ys5VnTggwkEB-169" value="" style="whiteSpace=wrap;html=1;aspect=fixed;" vertex="1" parent="WIyWlLk6GJQsqaUBKTNV-1">
          <mxGeometry x="253.5" y="695" width="17" height="17" as="geometry" />
        </mxCell>
        <mxCell id="UpRyoZh2Ys5VnTggwkEB-170" value="" style="line;strokeWidth=1;fillColor=none;align=left;verticalAlign=middle;spacingTop=-1;spacingLeft=3;spacingRight=3;rotatable=0;labelPosition=right;points=[];portConstraint=eastwest;strokeColor=inherit;" vertex="1" parent="WIyWlLk6GJQsqaUBKTNV-1">
          <mxGeometry x="270.5" y="699.5" width="13" height="8" as="geometry" />
        </mxCell>
        <mxCell id="UpRyoZh2Ys5VnTggwkEB-171" value="" style="shape=requiredInterface;html=1;verticalLabelPosition=bottom;sketch=0;rotation=-180;" vertex="1" parent="WIyWlLk6GJQsqaUBKTNV-1">
          <mxGeometry x="283.5" y="694" width="10" height="20" as="geometry" />
        </mxCell>
        <mxCell id="UpRyoZh2Ys5VnTggwkEB-172" value="" style="whiteSpace=wrap;html=1;aspect=fixed;" vertex="1" parent="WIyWlLk6GJQsqaUBKTNV-1">
          <mxGeometry x="312" y="695.5" width="17" height="17" as="geometry" />
        </mxCell>
        <mxCell id="UpRyoZh2Ys5VnTggwkEB-173" value="" style="line;strokeWidth=1;fillColor=none;align=left;verticalAlign=middle;spacingTop=-1;spacingLeft=3;spacingRight=3;rotatable=0;labelPosition=right;points=[];portConstraint=eastwest;strokeColor=inherit;" vertex="1" parent="WIyWlLk6GJQsqaUBKTNV-1">
          <mxGeometry x="302" y="700" width="10" height="8" as="geometry" />
        </mxCell>
        <mxCell id="UpRyoZh2Ys5VnTggwkEB-174" value="" style="line;strokeWidth=1;fillColor=none;align=left;verticalAlign=middle;spacingTop=-1;spacingLeft=3;spacingRight=3;rotatable=0;labelPosition=right;points=[];portConstraint=eastwest;strokeColor=inherit;" vertex="1" parent="WIyWlLk6GJQsqaUBKTNV-1">
          <mxGeometry x="329" y="699.5" width="23" height="8" as="geometry" />
        </mxCell>
        <mxCell id="UpRyoZh2Ys5VnTggwkEB-175" value="" style="shape=requiredInterface;html=1;verticalLabelPosition=bottom;sketch=0;rotation=-180;" vertex="1" parent="WIyWlLk6GJQsqaUBKTNV-1">
          <mxGeometry x="352" y="693.5" width="10" height="20" as="geometry" />
        </mxCell>
        <mxCell id="UpRyoZh2Ys5VnTggwkEB-176" value="" style="endArrow=open;endSize=12;dashed=1;html=1;rounded=0;exitX=0;exitY=0.5;exitDx=0;exitDy=0;exitPerimeter=0;" edge="1" parent="WIyWlLk6GJQsqaUBKTNV-1">
          <mxGeometry width="160" relative="1" as="geometry">
            <mxPoint x="362" y="703.6" as="sourcePoint" />
            <mxPoint x="402" y="703.6" as="targetPoint" />
          </mxGeometry>
        </mxCell>
        <mxCell id="UpRyoZh2Ys5VnTggwkEB-177" value="" style="ellipse;whiteSpace=wrap;html=1;aspect=fixed;" vertex="1" parent="WIyWlLk6GJQsqaUBKTNV-1">
          <mxGeometry x="402" y="695" width="17" height="17" as="geometry" />
        </mxCell>
        <mxCell id="UpRyoZh2Ys5VnTggwkEB-178" value="" style="line;strokeWidth=1;fillColor=none;align=left;verticalAlign=middle;spacingTop=-1;spacingLeft=3;spacingRight=3;rotatable=0;labelPosition=right;points=[];portConstraint=eastwest;strokeColor=inherit;" vertex="1" parent="WIyWlLk6GJQsqaUBKTNV-1">
          <mxGeometry x="419" y="700" width="53" height="8" as="geometry" />
        </mxCell>
        <mxCell id="UpRyoZh2Ys5VnTggwkEB-179" value="" style="whiteSpace=wrap;html=1;aspect=fixed;" vertex="1" parent="WIyWlLk6GJQsqaUBKTNV-1">
          <mxGeometry x="472" y="695" width="17" height="17" as="geometry" />
        </mxCell>
        <mxCell id="UpRyoZh2Ys5VnTggwkEB-180" value="" style="line;strokeWidth=1;fillColor=none;align=left;verticalAlign=middle;spacingTop=-1;spacingLeft=3;spacingRight=3;rotatable=0;labelPosition=right;points=[];portConstraint=eastwest;strokeColor=inherit;" vertex="1" parent="WIyWlLk6GJQsqaUBKTNV-1">
          <mxGeometry x="490" y="700" width="20" height="8" as="geometry" />
        </mxCell>
        <mxCell id="UpRyoZh2Ys5VnTggwkEB-181" value="" style="ellipse;whiteSpace=wrap;html=1;aspect=fixed;" vertex="1" parent="WIyWlLk6GJQsqaUBKTNV-1">
          <mxGeometry x="509" y="695.5" width="17" height="17" as="geometry" />
        </mxCell>
        <mxCell id="UpRyoZh2Ys5VnTggwkEB-182" value="" style="line;strokeWidth=1;fillColor=none;align=left;verticalAlign=middle;spacingTop=-1;spacingLeft=3;spacingRight=3;rotatable=0;labelPosition=right;points=[];portConstraint=eastwest;strokeColor=inherit;" vertex="1" parent="WIyWlLk6GJQsqaUBKTNV-1">
          <mxGeometry x="522" y="699.5" width="15" height="8" as="geometry" />
        </mxCell>
        <mxCell id="UpRyoZh2Ys5VnTggwkEB-186" value="" style="shape=providedRequiredInterface;html=1;verticalLabelPosition=bottom;sketch=0;direction=north;" vertex="1" parent="WIyWlLk6GJQsqaUBKTNV-1">
          <mxGeometry x="612" y="614" width="20" height="20" as="geometry" />
        </mxCell>
        <mxCell id="UpRyoZh2Ys5VnTggwkEB-187" value="" style="line;strokeWidth=1;fillColor=none;align=left;verticalAlign=middle;spacingTop=-1;spacingLeft=3;spacingRight=3;rotatable=0;labelPosition=right;points=[];portConstraint=eastwest;strokeColor=inherit;direction=south;" vertex="1" parent="WIyWlLk6GJQsqaUBKTNV-1">
          <mxGeometry x="618" y="594" width="8" height="20" as="geometry" />
        </mxCell>
        <mxCell id="UpRyoZh2Ys5VnTggwkEB-188" value="" style="line;strokeWidth=1;fillColor=none;align=left;verticalAlign=middle;spacingTop=-1;spacingLeft=3;spacingRight=3;rotatable=0;labelPosition=right;points=[];portConstraint=eastwest;strokeColor=inherit;direction=south;" vertex="1" parent="WIyWlLk6GJQsqaUBKTNV-1">
          <mxGeometry x="618" y="634" width="8" height="12" as="geometry" />
        </mxCell>
        <mxCell id="UpRyoZh2Ys5VnTggwkEB-189" value="" style="line;strokeWidth=1;fillColor=none;align=left;verticalAlign=middle;spacingTop=-1;spacingLeft=3;spacingRight=3;rotatable=0;labelPosition=right;points=[];portConstraint=eastwest;strokeColor=inherit;direction=south;" vertex="1" parent="WIyWlLk6GJQsqaUBKTNV-1">
          <mxGeometry x="618" y="756" width="8" height="20" as="geometry" />
        </mxCell>
        <mxCell id="UpRyoZh2Ys5VnTggwkEB-190" value="" style="shape=providedRequiredInterface;html=1;verticalLabelPosition=bottom;sketch=0;direction=north;" vertex="1" parent="WIyWlLk6GJQsqaUBKTNV-1">
          <mxGeometry x="612" y="776" width="20" height="20" as="geometry" />
        </mxCell>
        <mxCell id="UpRyoZh2Ys5VnTggwkEB-191" value="" style="line;strokeWidth=1;fillColor=none;align=left;verticalAlign=middle;spacingTop=-1;spacingLeft=3;spacingRight=3;rotatable=0;labelPosition=right;points=[];portConstraint=eastwest;strokeColor=inherit;direction=south;" vertex="1" parent="WIyWlLk6GJQsqaUBKTNV-1">
          <mxGeometry x="618" y="796" width="8" height="12" as="geometry" />
        </mxCell>
        <mxCell id="UpRyoZh2Ys5VnTggwkEB-193" value="&lt;span style=&quot;font-weight: normal;&quot;&gt;Internal structure&lt;/span&gt;" style="text;align=center;fontStyle=1;verticalAlign=middle;spacingLeft=3;spacingRight=3;strokeColor=none;rotatable=0;points=[[0,0.5],[1,0.5]];portConstraint=eastwest;html=1;" vertex="1" parent="WIyWlLk6GJQsqaUBKTNV-1">
          <mxGeometry x="137" y="168" width="80" height="26" as="geometry" />
        </mxCell>
        <mxCell id="UpRyoZh2Ys5VnTggwkEB-194" value="&lt;span style=&quot;font-weight: normal;&quot;&gt;Internal structure&lt;/span&gt;" style="text;align=center;fontStyle=1;verticalAlign=middle;spacingLeft=3;spacingRight=3;strokeColor=none;rotatable=0;points=[[0,0.5],[1,0.5]];portConstraint=eastwest;html=1;" vertex="1" parent="WIyWlLk6GJQsqaUBKTNV-1">
          <mxGeometry x="582" y="175" width="80" height="26" as="geometry" />
        </mxCell>
        <mxCell id="UpRyoZh2Ys5VnTggwkEB-195" value="&lt;span style=&quot;font-weight: normal;&quot;&gt;Internal structure&lt;/span&gt;" style="text;align=center;fontStyle=1;verticalAlign=middle;spacingLeft=3;spacingRight=3;strokeColor=none;rotatable=0;points=[[0,0.5],[1,0.5]];portConstraint=eastwest;html=1;" vertex="1" parent="WIyWlLk6GJQsqaUBKTNV-1">
          <mxGeometry x="582" y="458" width="80" height="26" as="geometry" />
        </mxCell>
        <mxCell id="UpRyoZh2Ys5VnTggwkEB-196" value="&lt;span style=&quot;font-weight: normal;&quot;&gt;Search Inventory&lt;/span&gt;" style="text;align=center;fontStyle=1;verticalAlign=middle;spacingLeft=3;spacingRight=3;strokeColor=none;rotatable=0;points=[[0,0.5],[1,0.5]];portConstraint=eastwest;html=1;" vertex="1" parent="WIyWlLk6GJQsqaUBKTNV-1">
          <mxGeometry x="362" y="201" width="80" height="26" as="geometry" />
        </mxCell>
        <mxCell id="UpRyoZh2Ys5VnTggwkEB-197" value="&lt;span style=&quot;font-weight: normal;&quot;&gt;Manage Orders&lt;/span&gt;" style="text;align=center;fontStyle=1;verticalAlign=middle;spacingLeft=3;spacingRight=3;strokeColor=none;rotatable=0;points=[[0,0.5],[1,0.5]];portConstraint=eastwest;html=1;" vertex="1" parent="WIyWlLk6GJQsqaUBKTNV-1">
          <mxGeometry x="370.5" y="502.5" width="80" height="26" as="geometry" />
        </mxCell>
        <mxCell id="UpRyoZh2Ys5VnTggwkEB-198" value="&lt;span style=&quot;font-weight: normal;&quot;&gt;Manage Customers&lt;/span&gt;" style="text;align=center;fontStyle=1;verticalAlign=middle;spacingLeft=3;spacingRight=3;strokeColor=none;rotatable=0;points=[[0,0.5],[1,0.5]];portConstraint=eastwest;html=1;" vertex="1" parent="WIyWlLk6GJQsqaUBKTNV-1">
          <mxGeometry x="370.5" y="666.25" width="80" height="23.5" as="geometry" />
        </mxCell>
        <mxCell id="UpRyoZh2Ys5VnTggwkEB-199" value="&lt;span style=&quot;font-weight: normal;&quot;&gt;Manage&amp;nbsp;&lt;/span&gt;&lt;div&gt;&lt;span style=&quot;font-weight: normal;&quot;&gt;Inventory&lt;/span&gt;&lt;/div&gt;" style="text;align=center;fontStyle=1;verticalAlign=middle;spacingLeft=3;spacingRight=3;strokeColor=none;rotatable=0;points=[[0,0.5],[1,0.5]];portConstraint=eastwest;html=1;" vertex="1" parent="WIyWlLk6GJQsqaUBKTNV-1">
          <mxGeometry x="762" y="496.5" width="58" height="26" as="geometry" />
        </mxCell>
        <mxCell id="UpRyoZh2Ys5VnTggwkEB-200" value="&lt;span style=&quot;font-weight: normal;&quot;&gt;Manage&amp;nbsp;&lt;/span&gt;&lt;div&gt;&lt;span style=&quot;font-weight: normal;&quot;&gt;Inventory&lt;/span&gt;&lt;/div&gt;" style="text;align=center;fontStyle=1;verticalAlign=middle;spacingLeft=3;spacingRight=3;strokeColor=none;rotatable=0;points=[[0,0.5],[1,0.5]];portConstraint=eastwest;html=1;" vertex="1" parent="WIyWlLk6GJQsqaUBKTNV-1">
          <mxGeometry x="769" y="206" width="58" height="26" as="geometry" />
        </mxCell>
        <mxCell id="UpRyoZh2Ys5VnTggwkEB-201" value="Store - UML Component Diagram" style="text;align=center;fontStyle=1;verticalAlign=middle;spacingLeft=3;spacingRight=3;strokeColor=none;rotatable=0;points=[[0,0.5],[1,0.5]];portConstraint=eastwest;html=1;fontSize=20;" vertex="1" parent="WIyWlLk6GJQsqaUBKTNV-1">
          <mxGeometry x="329" y="20" width="160" height="26" as="geometry" />
        </mxCell>
      </root>
    </mxGraphModel>
  </diagram>
</mxfile>
